<?xml version="1.0" encoding="UTF-8" standalone="no"?>
<svg width="369.006mm" height="222.25mm"
 viewBox="0 0 1046 630"
 xmlns="http://www.w3.org/2000/svg" xmlns:xlink="http://www.w3.org/1999/xlink"  version="1.2" baseProfile="tiny">
<title>Qt SVG Document</title>
<desc>MATLAB, The MathWorks, Inc. Version 25.2.0.3055257 R2025b Update 2</desc>
<defs>
</defs>
<g fill="none" stroke="black" stroke-width="1" fill-rule="evenodd" stroke-linecap="square" stroke-linejoin="bevel" >

<g fill="#ffffff" fill-opacity="1" stroke="none" transform="matrix(0.5,0,0,0.5,0,0)"
font-family=".AppleSystemUIFont" font-size="13" font-weight="400" font-style="normal" 
>
<path vector-effect="none" fill-rule="evenodd" d="M0,0 L2092,0 L2092,1261 L0,1261 L0,0"/>
</g>

<g fill="#ffffff" fill-opacity="1" stroke="none" transform="matrix(5e-05,0,0,5e-05,0,0)"
font-family=".AppleSystemUIFont" font-size="13" font-weight="400" font-style="normal" 
>
<path vector-effect="none" fill-rule="evenodd" d="M2.72e+06,940000 L2.72e+06,1.121e+07 L1.892e+07,1.121e+07 L1.892e+07,940000 L2.72e+06,940000"/>
</g>

<g fill="#212121" fill-opacity="1" stroke="#212121" stroke-opacity="1" stroke-width="1" stroke-linecap="square" stroke-linejoin="round" transform="matrix(0.5,0,0,0.5,0,0)"
font-family=".AppleSystemUIFont" font-size="13" font-weight="400" font-style="normal" 
>
<polyline fill="none" vector-effect="none" points="272,1121 1892,1121 " />
<polyline fill="none" vector-effect="none" points="272,94 1892,94 " />
<polyline fill="none" vector-effect="none" points="272,1121 272,1104.8 " />
<polyline fill="none" vector-effect="none" points="272,110.2 272,94 " />
<polyline fill="none" vector-effect="none" points="434,1121 434,1104.8 " />
<polyline fill="none" vector-effect="none" points="434,110.2 434,94 " />
<polyline fill="none" vector-effect="none" points="596,1121 596,1104.8 " />
<polyline fill="none" vector-effect="none" points="596,110.2 596,94 " />
<polyline fill="none" vector-effect="none" points="758,1121 758,1104.8 " />
<polyline fill="none" vector-effect="none" points="758,110.2 758,94 " />
<polyline fill="none" vector-effect="none" points="920,1121 920,1104.8 " />
<polyline fill="none" vector-effect="none" points="920,110.2 920,94 " />
<polyline fill="none" vector-effect="none" points="1082,1121 1082,1104.8 " />
<polyline fill="none" vector-effect="none" points="1082,110.2 1082,94 " />
<polyline fill="none" vector-effect="none" points="1244,1121 1244,1104.8 " />
<polyline fill="none" vector-effect="none" points="1244,110.2 1244,94 " />
<polyline fill="none" vector-effect="none" points="1406,1121 1406,1104.8 " />
<polyline fill="none" vector-effect="none" points="1406,110.2 1406,94 " />
<polyline fill="none" vector-effect="none" points="1568,1121 1568,1104.8 " />
<polyline fill="none" vector-effect="none" points="1568,110.2 1568,94 " />
<polyline fill="none" vector-effect="none" points="1730,1121 1730,1104.8 " />
<polyline fill="none" vector-effect="none" points="1730,110.2 1730,94 " />
<polyline fill="none" vector-effect="none" points="1892,1121 1892,1104.8 " />
<polyline fill="none" vector-effect="none" points="1892,110.2 1892,94 " />
</g>

<g fill="#212121" fill-opacity="1" stroke="#212121" stroke-opacity="1" stroke-width="1" stroke-linecap="square" stroke-linejoin="bevel" transform="matrix(0.5,0,0,0.5,133.25,572)"
font-family="Helvetica" font-size="20" font-weight="400" font-style="normal" 
>
<text fill="#212121" fill-opacity="1" stroke="none" xml:space="preserve" x="0" y="0.390625" font-family="Helvetica" font-size="20" font-weight="400" font-style="normal" 
 >0</text>
</g>

<g fill="#212121" fill-opacity="1" stroke="#212121" stroke-opacity="1" stroke-width="1" stroke-linecap="square" stroke-linejoin="bevel" transform="matrix(0.5,0,0,0.5,210,572)"
font-family="Helvetica" font-size="20" font-weight="400" font-style="normal" 
>
<text fill="#212121" fill-opacity="1" stroke="none" xml:space="preserve" x="0" y="0.390625" font-family="Helvetica" font-size="20" font-weight="400" font-style="normal" 
 >0.1</text>
</g>

<g fill="#212121" fill-opacity="1" stroke="#212121" stroke-opacity="1" stroke-width="1" stroke-linecap="square" stroke-linejoin="bevel" transform="matrix(0.5,0,0,0.5,291,572)"
font-family="Helvetica" font-size="20" font-weight="400" font-style="normal" 
>
<text fill="#212121" fill-opacity="1" stroke="none" xml:space="preserve" x="0" y="0.390625" font-family="Helvetica" font-size="20" font-weight="400" font-style="normal" 
 >0.2</text>
</g>

<g fill="#212121" fill-opacity="1" stroke="#212121" stroke-opacity="1" stroke-width="1" stroke-linecap="square" stroke-linejoin="bevel" transform="matrix(0.5,0,0,0.5,372,572)"
font-family="Helvetica" font-size="20" font-weight="400" font-style="normal" 
>
<text fill="#212121" fill-opacity="1" stroke="none" xml:space="preserve" x="0" y="0.390625" font-family="Helvetica" font-size="20" font-weight="400" font-style="normal" 
 >0.3</text>
</g>

<g fill="#212121" fill-opacity="1" stroke="#212121" stroke-opacity="1" stroke-width="1" stroke-linecap="square" stroke-linejoin="bevel" transform="matrix(0.5,0,0,0.5,453,572)"
font-family="Helvetica" font-size="20" font-weight="400" font-style="normal" 
>
<text fill="#212121" fill-opacity="1" stroke="none" xml:space="preserve" x="0" y="0.390625" font-family="Helvetica" font-size="20" font-weight="400" font-style="normal" 
 >0.4</text>
</g>

<g fill="#212121" fill-opacity="1" stroke="#212121" stroke-opacity="1" stroke-width="1" stroke-linecap="square" stroke-linejoin="bevel" transform="matrix(0.5,0,0,0.5,534,572)"
font-family="Helvetica" font-size="20" font-weight="400" font-style="normal" 
>
<text fill="#212121" fill-opacity="1" stroke="none" xml:space="preserve" x="0" y="0.390625" font-family="Helvetica" font-size="20" font-weight="400" font-style="normal" 
 >0.5</text>
</g>

<g fill="#212121" fill-opacity="1" stroke="#212121" stroke-opacity="1" stroke-width="1" stroke-linecap="square" stroke-linejoin="bevel" transform="matrix(0.5,0,0,0.5,615,572)"
font-family="Helvetica" font-size="20" font-weight="400" font-style="normal" 
>
<text fill="#212121" fill-opacity="1" stroke="none" xml:space="preserve" x="0" y="0.390625" font-family="Helvetica" font-size="20" font-weight="400" font-style="normal" 
 >0.6</text>
</g>

<g fill="#212121" fill-opacity="1" stroke="#212121" stroke-opacity="1" stroke-width="1" stroke-linecap="square" stroke-linejoin="bevel" transform="matrix(0.5,0,0,0.5,696,572)"
font-family="Helvetica" font-size="20" font-weight="400" font-style="normal" 
>
<text fill="#212121" fill-opacity="1" stroke="none" xml:space="preserve" x="0" y="0.390625" font-family="Helvetica" font-size="20" font-weight="400" font-style="normal" 
 >0.7</text>
</g>

<g fill="#212121" fill-opacity="1" stroke="#212121" stroke-opacity="1" stroke-width="1" stroke-linecap="square" stroke-linejoin="bevel" transform="matrix(0.5,0,0,0.5,777,572)"
font-family="Helvetica" font-size="20" font-weight="400" font-style="normal" 
>
<text fill="#212121" fill-opacity="1" stroke="none" xml:space="preserve" x="0" y="0.390625" font-family="Helvetica" font-size="20" font-weight="400" font-style="normal" 
 >0.8</text>
</g>

<g fill="#212121" fill-opacity="1" stroke="#212121" stroke-opacity="1" stroke-width="1" stroke-linecap="square" stroke-linejoin="bevel" transform="matrix(0.5,0,0,0.5,858,572)"
font-family="Helvetica" font-size="20" font-weight="400" font-style="normal" 
>
<text fill="#212121" fill-opacity="1" stroke="none" xml:space="preserve" x="0" y="0.390625" font-family="Helvetica" font-size="20" font-weight="400" font-style="normal" 
 >0.9</text>
</g>

<g fill="#212121" fill-opacity="1" stroke="#212121" stroke-opacity="1" stroke-width="1" stroke-linecap="square" stroke-linejoin="bevel" transform="matrix(0.5,0,0,0.5,943.25,572)"
font-family="Helvetica" font-size="20" font-weight="400" font-style="normal" 
>
<text fill="#212121" fill-opacity="1" stroke="none" xml:space="preserve" x="0" y="0.390625" font-family="Helvetica" font-size="20" font-weight="400" font-style="normal" 
 >1</text>
</g>

<g fill="#212121" fill-opacity="1" stroke="#212121" stroke-opacity="1" stroke-width="1" stroke-linecap="square" stroke-linejoin="round" transform="matrix(0.5,0,0,0.5,0,0)"
font-family="Helvetica" font-size="20" font-weight="400" font-style="normal" 
>
<polyline fill="none" vector-effect="none" points="272,1121 272,94 " />
<polyline fill="none" vector-effect="none" points="1892,1121 1892,94 " />
<polyline fill="none" vector-effect="none" points="272,1121 288.2,1121 " />
<polyline fill="none" vector-effect="none" points="1875.8,1121 1892,1121 " />
<polyline fill="none" vector-effect="none" points="272,1018.3 288.2,1018.3 " />
<polyline fill="none" vector-effect="none" points="1875.8,1018.3 1892,1018.3 " />
<polyline fill="none" vector-effect="none" points="272,915.6 288.2,915.6 " />
<polyline fill="none" vector-effect="none" points="1875.8,915.6 1892,915.6 " />
<polyline fill="none" vector-effect="none" points="272,812.9 288.2,812.9 " />
<polyline fill="none" vector-effect="none" points="1875.8,812.9 1892,812.9 " />
<polyline fill="none" vector-effect="none" points="272,710.2 288.2,710.2 " />
<polyline fill="none" vector-effect="none" points="1875.8,710.2 1892,710.2 " />
<polyline fill="none" vector-effect="none" points="272,607.5 288.2,607.5 " />
<polyline fill="none" vector-effect="none" points="1875.8,607.5 1892,607.5 " />
<polyline fill="none" vector-effect="none" points="272,504.8 288.2,504.8 " />
<polyline fill="none" vector-effect="none" points="1875.8,504.8 1892,504.8 " />
<polyline fill="none" vector-effect="none" points="272,402.1 288.2,402.1 " />
<polyline fill="none" vector-effect="none" points="1875.8,402.1 1892,402.1 " />
<polyline fill="none" vector-effect="none" points="272,299.4 288.2,299.4 " />
<polyline fill="none" vector-effect="none" points="1875.8,299.4 1892,299.4 " />
<polyline fill="none" vector-effect="none" points="272,196.7 288.2,196.7 " />
<polyline fill="none" vector-effect="none" points="1875.8,196.7 1892,196.7 " />
<polyline fill="none" vector-effect="none" points="272,94 288.2,94 " />
<polyline fill="none" vector-effect="none" points="1875.8,94 1892,94 " />
</g>

<g fill="#212121" fill-opacity="1" stroke="#212121" stroke-opacity="1" stroke-width="1" stroke-linecap="square" stroke-linejoin="bevel" transform="matrix(0.5,0,0,0.5,126.5,563)"
font-family="Helvetica" font-size="20" font-weight="400" font-style="normal" 
>
<text fill="#212121" fill-opacity="1" stroke="none" xml:space="preserve" x="0" y="0.390625" font-family="Helvetica" font-size="20" font-weight="400" font-style="normal" 
 >0</text>
</g>

<g fill="#212121" fill-opacity="1" stroke="#212121" stroke-opacity="1" stroke-width="1" stroke-linecap="square" stroke-linejoin="bevel" transform="matrix(0.5,0,0,0.5,118,511.65)"
font-family="Helvetica" font-size="20" font-weight="400" font-style="normal" 
>
<text fill="#212121" fill-opacity="1" stroke="none" xml:space="preserve" x="0" y="0.390625" font-family="Helvetica" font-size="20" font-weight="400" font-style="normal" 
 >0.1</text>
</g>

<g fill="#212121" fill-opacity="1" stroke="#212121" stroke-opacity="1" stroke-width="1" stroke-linecap="square" stroke-linejoin="bevel" transform="matrix(0.5,0,0,0.5,118,460.3)"
font-family="Helvetica" font-size="20" font-weight="400" font-style="normal" 
>
<text fill="#212121" fill-opacity="1" stroke="none" xml:space="preserve" x="0" y="0.390625" font-family="Helvetica" font-size="20" font-weight="400" font-style="normal" 
 >0.2</text>
</g>

<g fill="#212121" fill-opacity="1" stroke="#212121" stroke-opacity="1" stroke-width="1" stroke-linecap="square" stroke-linejoin="bevel" transform="matrix(0.5,0,0,0.5,118,408.95)"
font-family="Helvetica" font-size="20" font-weight="400" font-style="normal" 
>
<text fill="#212121" fill-opacity="1" stroke="none" xml:space="preserve" x="0" y="0.390625" font-family="Helvetica" font-size="20" font-weight="400" font-style="normal" 
 >0.3</text>
</g>

<g fill="#212121" fill-opacity="1" stroke="#212121" stroke-opacity="1" stroke-width="1" stroke-linecap="square" stroke-linejoin="bevel" transform="matrix(0.5,0,0,0.5,118,357.6)"
font-family="Helvetica" font-size="20" font-weight="400" font-style="normal" 
>
<text fill="#212121" fill-opacity="1" stroke="none" xml:space="preserve" x="0" y="0.390625" font-family="Helvetica" font-size="20" font-weight="400" font-style="normal" 
 >0.4</text>
</g>

<g fill="#212121" fill-opacity="1" stroke="#212121" stroke-opacity="1" stroke-width="1" stroke-linecap="square" stroke-linejoin="bevel" transform="matrix(0.5,0,0,0.5,118,306.25)"
font-family="Helvetica" font-size="20" font-weight="400" font-style="normal" 
>
<text fill="#212121" fill-opacity="1" stroke="none" xml:space="preserve" x="0" y="0.390625" font-family="Helvetica" font-size="20" font-weight="400" font-style="normal" 
 >0.5</text>
</g>

<g fill="#212121" fill-opacity="1" stroke="#212121" stroke-opacity="1" stroke-width="1" stroke-linecap="square" stroke-linejoin="bevel" transform="matrix(0.5,0,0,0.5,118,254.9)"
font-family="Helvetica" font-size="20" font-weight="400" font-style="normal" 
>
<text fill="#212121" fill-opacity="1" stroke="none" xml:space="preserve" x="0" y="0.390625" font-family="Helvetica" font-size="20" font-weight="400" font-style="normal" 
 >0.6</text>
</g>

<g fill="#212121" fill-opacity="1" stroke="#212121" stroke-opacity="1" stroke-width="1" stroke-linecap="square" stroke-linejoin="bevel" transform="matrix(0.5,0,0,0.5,118,203.55)"
font-family="Helvetica" font-size="20" font-weight="400" font-style="normal" 
>
<text fill="#212121" fill-opacity="1" stroke="none" xml:space="preserve" x="0" y="0.390625" font-family="Helvetica" font-size="20" font-weight="400" font-style="normal" 
 >0.7</text>
</g>

<g fill="#212121" fill-opacity="1" stroke="#212121" stroke-opacity="1" stroke-width="1" stroke-linecap="square" stroke-linejoin="bevel" transform="matrix(0.5,0,0,0.5,118,152.2)"
font-family="Helvetica" font-size="20" font-weight="400" font-style="normal" 
>
<text fill="#212121" fill-opacity="1" stroke="none" xml:space="preserve" x="0" y="0.390625" font-family="Helvetica" font-size="20" font-weight="400" font-style="normal" 
 >0.8</text>
</g>

<g fill="#212121" fill-opacity="1" stroke="#212121" stroke-opacity="1" stroke-width="1" stroke-linecap="square" stroke-linejoin="bevel" transform="matrix(0.5,0,0,0.5,118,100.85)"
font-family="Helvetica" font-size="20" font-weight="400" font-style="normal" 
>
<text fill="#212121" fill-opacity="1" stroke="none" xml:space="preserve" x="0" y="0.390625" font-family="Helvetica" font-size="20" font-weight="400" font-style="normal" 
 >0.9</text>
</g>

<g fill="#212121" fill-opacity="1" stroke="#212121" stroke-opacity="1" stroke-width="1" stroke-linecap="square" stroke-linejoin="bevel" transform="matrix(0.5,0,0,0.5,126.5,49.5)"
font-family="Helvetica" font-size="20" font-weight="400" font-style="normal" 
>
<text fill="#212121" fill-opacity="1" stroke="none" xml:space="preserve" x="0" y="0.390625" font-family="Helvetica" font-size="20" font-weight="400" font-style="normal" 
 >1</text>
</g>

<g fill="none" stroke="#1171be" stroke-opacity="1" stroke-width="12" stroke-linecap="butt" stroke-linejoin="round" transform="matrix(0.5,0,0,0.5,0,0)"
font-family="Helvetica" font-size="20" font-weight="400" font-style="normal" 
>
<polyline fill="none" vector-effect="none" points="272,94 288.2,124.503 304.4,154.396 320.6,183.685 336.8,212.376 353,240.476 369.2,267.99 385.4,294.925 401.6,321.287 417.8,347.083 434,372.317 450.2,396.997 466.4,421.128 482.6,444.717 498.8,467.77 515,490.294 531.2,512.293 547.4,533.775 563.6,554.745 579.8,575.21 596,595.176 612.2,614.649 628.4,633.635 644.6,652.141 660.8,670.172 677,687.734 693.2,704.835 709.4,721.48 725.6,737.674 741.8,753.425 758,768.739 774.2,783.621 790.4,798.078 806.6,812.116 822.8,825.742 839,838.96 855.2,851.778 871.4,864.202 887.6,876.237 903.8,887.891 920,899.168 936.2,910.076 952.4,920.62 968.6,930.807 984.8,940.642 1001,950.133 1017.2,959.284 1033.4,968.103 1049.6,976.596 1065.8,984.767 1082,992.625 1098.2,1000.17 1114.4,1007.42 1130.6,1014.37 1146.8,1021.04 1163,1027.41 1179.2,1033.52 1195.4,1039.35 1211.6,1044.91 1227.8,1050.22 1244,1055.27 1260.2,1060.08 1276.4,1064.65 1292.6,1068.98 1308.8,1073.08 1325,1076.97 1341.2,1080.63 1357.4,1084.09 1373.6,1087.35 1389.8,1090.4 1406,1093.27 1422.2,1095.95 1438.4,1098.46 1454.6,1100.79 1470.8,1102.95 1487,1104.95 1503.2,1106.8 1519.4,1108.5 1535.6,1110.06 1551.8,1111.49 1568,1112.78 1584.2,1113.96 1600.4,1115.01 1616.6,1115.95 1632.8,1116.79 1649,1117.53 1665.2,1118.18 1681.4,1118.74 1697.6,1119.23 1713.8,1119.63 1730,1119.97 1746.2,1120.25 1762.4,1120.47 1778.6,1120.65 1794.8,1120.78 1811,1120.87 1827.2,1120.93 1843.4,1120.97 1859.6,1120.99 1875.8,1121 1892,1121 " />
</g>

<g fill="none" stroke="#dd5400" stroke-opacity="1" stroke-width="12" stroke-linecap="butt" stroke-linejoin="round" transform="matrix(0.5,0,0,0.5,0,0)"
font-family="Helvetica" font-size="20" font-weight="400" font-style="normal" 
>
<polyline fill="none" vector-effect="none" points="272,1121 288.2,1090.8 304.4,1061.82 320.6,1034.03 336.8,1007.42 353,981.97 369.2,957.658 385.4,934.467 401.6,912.379 417.8,891.376 434,871.439 450.2,852.549 466.4,834.689 482.6,817.839 498.8,801.981 515,787.097 531.2,773.167 547.4,760.175 563.6,748.1 579.8,736.926 596,726.632 612.2,717.201 628.4,708.614 644.6,700.853 660.8,693.899 677,687.734 693.2,682.34 709.4,677.696 725.6,673.787 741.8,670.592 758,668.093 774.2,666.272 790.4,665.111 806.6,664.59 822.8,664.692 839,665.397 855.2,666.688 871.4,668.546 887.6,670.952 903.8,673.888 920,677.336 936.2,681.277 952.4,685.692 968.6,690.563 984.8,695.871 1001,701.599 1017.2,707.727 1033.4,714.237 1049.6,721.111 1065.8,728.33 1082,735.875 1098.2,743.728 1114.4,751.872 1130.6,760.286 1146.8,768.953 1163,777.854 1179.2,786.97 1195.4,796.284 1211.6,805.777 1227.8,815.43 1244,825.224 1260.2,835.142 1276.4,845.164 1292.6,855.273 1308.8,865.45 1325,875.675 1341.2,885.932 1357.4,896.201 1373.6,906.464 1389.8,916.702 1406,926.897 1422.2,937.03 1438.4,947.084 1454.6,957.038 1470.8,966.876 1487,976.578 1503.2,986.126 1519.4,995.502 1535.6,1004.69 1551.8,1013.66 1568,1022.41 1584.2,1030.91 1600.4,1039.14 1616.6,1047.1 1632.8,1054.75 1649,1062.08 1665.2,1069.07 1681.4,1075.7 1697.6,1081.96 1713.8,1087.82 1730,1093.27 1746.2,1098.29 1762.4,1102.86 1778.6,1106.96 1794.8,1110.57 1811,1113.68 1827.2,1116.27 1843.4,1118.31 1859.6,1119.79 1875.8,1120.69 1892,1121 " />
</g>

<g fill="none" stroke="#edb120" stroke-opacity="1" stroke-width="12" stroke-linecap="butt" stroke-linejoin="round" transform="matrix(0.5,0,0,0.5,0,0)"
font-family="Helvetica" font-size="20" font-weight="400" font-style="normal" 
>
<polyline fill="none" vector-effect="none" points="272,1121 288.2,1120.69 304.4,1119.79 320.6,1118.31 336.8,1116.27 353,1113.68 369.2,1110.57 385.4,1106.96 401.6,1102.86 417.8,1098.29 434,1093.27 450.2,1087.82 466.4,1081.96 482.6,1075.7 498.8,1069.07 515,1062.08 531.2,1054.75 547.4,1047.1 563.6,1039.14 579.8,1030.91 596,1022.41 612.2,1013.66 628.4,1004.69 644.6,995.502 660.8,986.126 677,976.578 693.2,966.876 709.4,957.038 725.6,947.084 741.8,937.03 758,926.897 774.2,916.702 790.4,906.464 806.6,896.201 822.8,885.932 839,875.675 855.2,865.45 871.4,855.273 887.6,845.164 903.8,835.142 920,825.224 936.2,815.43 952.4,805.777 968.6,796.284 984.8,786.97 1001,777.854 1017.2,768.953 1033.4,760.286 1049.6,751.872 1065.8,743.728 1082,735.875 1098.2,728.33 1114.4,721.111 1130.6,714.237 1146.8,707.727 1163,701.599 1179.2,695.871 1195.4,690.563 1211.6,685.692 1227.8,681.277 1244,677.336 1260.2,673.888 1276.4,670.952 1292.6,668.546 1308.8,666.688 1325,665.397 1341.2,664.692 1357.4,664.59 1373.6,665.111 1389.8,666.272 1406,668.093 1422.2,670.592 1438.4,673.787 1454.6,677.696 1470.8,682.34 1487,687.734 1503.2,693.899 1519.4,700.853 1535.6,708.614 1551.8,717.201 1568,726.632 1584.2,736.926 1600.4,748.1 1616.6,760.175 1632.8,773.167 1649,787.097 1665.2,801.981 1681.4,817.839 1697.6,834.689 1713.8,852.549 1730,871.439 1746.2,891.376 1762.4,912.379 1778.6,934.467 1794.8,957.658 1811,981.97 1827.2,1007.42 1843.4,1034.03 1859.6,1061.82 1875.8,1090.8 1892,1121 " />
</g>

<g fill="none" stroke="#8516d1" stroke-opacity="1" stroke-width="12" stroke-linecap="butt" stroke-linejoin="round" transform="matrix(0.5,0,0,0.5,0,0)"
font-family="Helvetica" font-size="20" font-weight="400" font-style="normal" 
>
<polyline fill="none" vector-effect="none" points="272,1121 288.2,1121 304.4,1120.99 320.6,1120.97 336.8,1120.93 353,1120.87 369.2,1120.78 385.4,1120.65 401.6,1120.47 417.8,1120.25 434,1119.97 450.2,1119.63 466.4,1119.23 482.6,1118.74 498.8,1118.18 515,1117.53 531.2,1116.79 547.4,1115.95 563.6,1115.01 579.8,1113.96 596,1112.78 612.2,1111.49 628.4,1110.06 644.6,1108.5 660.8,1106.8 677,1104.95 693.2,1102.95 709.4,1100.79 725.6,1098.46 741.8,1095.95 758,1093.27 774.2,1090.4 790.4,1087.35 806.6,1084.09 822.8,1080.63 839,1076.97 855.2,1073.08 871.4,1068.98 887.6,1064.65 903.8,1060.08 920,1055.27 936.2,1050.22 952.4,1044.91 968.6,1039.35 984.8,1033.52 1001,1027.41 1017.2,1021.04 1033.4,1014.37 1049.6,1007.42 1065.8,1000.17 1082,992.625 1098.2,984.767 1114.4,976.596 1130.6,968.103 1146.8,959.284 1163,950.133 1179.2,940.642 1195.4,930.807 1211.6,920.62 1227.8,910.076 1244,899.168 1260.2,887.891 1276.4,876.237 1292.6,864.202 1308.8,851.778 1325,838.96 1341.2,825.742 1357.4,812.116 1373.6,798.078 1389.8,783.621 1406,768.739 1422.2,753.425 1438.4,737.674 1454.6,721.48 1470.8,704.835 1487,687.734 1503.2,670.172 1519.4,652.141 1535.6,633.635 1551.8,614.649 1568,595.176 1584.2,575.21 1600.4,554.745 1616.6,533.775 1632.8,512.293 1649,490.294 1665.2,467.77 1681.4,444.717 1697.6,421.128 1713.8,396.997 1730,372.317 1746.2,347.083 1762.4,321.287 1778.6,294.925 1794.8,267.99 1811,240.476 1827.2,212.376 1843.4,183.685 1859.6,154.396 1875.8,124.503 1892,94 " />
</g>
</g>
</svg>
